<svg xmlns="http://www.w3.org/2000/svg" width="17" height="17" viewBox="0 0 17 17">
  <path id="Path_210" data-name="Path 210" d="M-55.876,273.646l5.939-5.94a1.5,1.5,0,0,0,0-2.121,1.5,1.5,0,0,0-2.121,0L-58,271.524l-5.94-5.939a1.5,1.5,0,0,0-2.121,0,1.5,1.5,0,0,0,0,2.121l5.94,5.94-5.94,5.939a1.5,1.5,0,0,0,0,2.121,1.5,1.5,0,0,0,1.061.44,1.492,1.492,0,0,0,1.06-.44l5.94-5.939,5.939,5.939a1.5,1.5,0,0,0,1.061.44,1.492,1.492,0,0,0,1.06-.44,1.5,1.5,0,0,0,0-2.121Z" transform="translate(66.498 -265.146)" fill="#fff"></path>
</svg>
