<svg width="52" height="54" fill="none" xmlns="http://www.w3.org/2000/svg"><g clip-path="url('#clip0')" fill="#fff"><path d="M21.969 48.767 3.886 30.492l19.518-19.718c5.41-5.466 12.24-9.093 19.765-10.5a7.432 7.432 0 0 1 6.641 2.088 7.613 7.613 0 0 1 2.067 6.712c-1.392 7.599-4.981 14.509-10.39 19.975L21.969 48.767ZM6.59 30.492l15.378 15.55L40.13 27.685a36.01 36.01 0 0 0 9.86-18.964 5.583 5.583 0 0 0-1.536-4.997c-1.32-1.326-3.118-1.898-4.945-1.553-7.142 1.333-13.631 4.777-18.764 9.965L6.59 30.492Z"/><path d="M35.35 6.607 34 7.969 46.63 20.731l1.348-1.363L35.35 6.607ZM30.024 27.818a5.335 5.335 0 0 1-3.821-1.598c-2.103-2.124-2.103-5.59 0-7.715a5.369 5.369 0 0 1 7.635 0c2.102 2.125 2.102 5.59 0 7.716a5.336 5.336 0 0 1-3.814 1.597Zm0-8.984c-.892 0-1.79.345-2.473 1.034a3.556 3.556 0 0 0 0 4.99 3.453 3.453 0 0 0 2.473 1.033c.935 0 1.813-.367 2.472-1.033a3.556 3.556 0 0 0 0-4.99 3.486 3.486 0 0 0-2.472-1.034ZM9.082 25.251l-1.349 1.363 15.012 15.17 1.348-1.362-15.011-15.17Z"/><path d="M6.844 30.236 0 23.319l.674-.682a8.179 8.179 0 0 1 5.844-2.447c2.204 0 4.285.872 5.844 2.447l1 1.011-6.518 6.588ZM2.748 23.37l4.096 4.14 3.807-3.847a6.29 6.29 0 0 0-4.133-1.546c-1.377 0-2.683.44-3.77 1.253ZM29.074 52.702l-6.844-6.917 6.518-6.587 1 1.01c3.22 3.254 3.22 8.56 0 11.813l-.674.681Zm-4.147-6.924 4.096 4.14a6.49 6.49 0 0 0-.29-7.987l-3.806 3.847ZM2.567 53.28l-1.523-1.157c1.472-2.25 1.11-3.847.696-5.7-.24-1.063-.486-2.155-.348-3.364.42-3.825 2.791-5.803 6.525-5.43l1.008.074-.029 1.86h-.92c-.044 0-.131-.007-.247-.014-2.683-.27-4.14.945-4.445 3.723-.094.886.102 1.78.32 2.725.282 1.246.58 2.594.304 4.148 1.414-.572 3.371-.93 5.894-.455 1.045.198 1.93-.087 2.632-.835.943-1.011 1.27-2.594 1.037-3.532l-.232-.938 1.849-.469.232.938c.42 1.7-.21 3.935-1.5 5.32-1.146 1.224-2.698 1.722-4.373 1.414-4.633-.879-6.793 1.59-6.88 1.693Z"/><path d="m5.336 46.745-.05-.96c-.03-.542-.146-1.121-.146-1.128l-.021-.154c-.102-2.081 1.312-2.939 2.08-3.1l.936-.198.391 1.89-.913.199c-.189.05-.602.263-.58 1.055.036.212.138.77.167 1.333l.05.96-1.914.103Z"/></g><defs><clipPath id="clip0"><path fill="#fff" transform="translate(0 .15)" d="M0 0h52v53.132H0z"/></clipPath></defs></svg>