<svg width="52" height="54" viewBox="0 0 52 54" fill="none" xmlns="http://www.w3.org/2000/svg">
<g clip-path="url(#clip0)">
<path d="M21.9688 48.7672L3.88623 30.4924L23.4044 10.7741C28.8132 5.30774 35.6431 1.68063 43.169 0.273745C45.5906 -0.173233 48.0703 0.603483 49.8104 2.36209C51.5505 4.12069 52.319 6.6267 51.8768 9.07409C50.4847 16.6727 46.8957 23.5826 41.4869 29.0489L21.9688 48.7672ZM6.59064 30.4924L21.9688 46.0414L40.1311 27.686C45.2644 22.4981 48.6793 15.94 49.9916 8.72236C50.3324 6.87583 49.7669 5.05128 48.4546 3.725C47.135 2.39872 45.3369 1.82718 43.5098 2.17157C36.3681 3.50518 29.879 6.94911 24.7457 12.137L6.59064 30.4924Z" fill="#ffffff"/>
<path d="M35.3498 6.60668L34.0015 7.96936L46.6287 20.7309L47.977 19.3682L35.3498 6.60668Z" fill="#ffffff"/>
<path d="M30.0239 27.8179C28.5811 27.8179 27.2253 27.2537 26.2029 26.2205C24.1003 24.0955 24.1003 20.6296 26.2029 18.5046C28.3056 16.3796 31.735 16.3796 33.8376 18.5046C35.9403 20.6296 35.9403 24.0955 33.8376 26.2205C32.8226 27.2463 31.4667 27.8179 30.0239 27.8179ZM30.0239 18.8344C29.1321 18.8344 28.2331 19.1788 27.5515 19.8675C26.1884 21.2451 26.1884 23.48 27.5515 24.8576C28.2113 25.5244 29.0886 25.8908 30.0239 25.8908C30.9592 25.8908 31.8365 25.5244 32.4963 24.8576C33.8594 23.48 33.8594 21.2451 32.4963 19.8675C31.8075 19.1788 30.9157 18.8344 30.0239 18.8344Z" fill="#ffffff"/>
<path d="M9.08174 25.2511L7.7334 26.6138L22.7446 41.7846L24.0929 40.4219L9.08174 25.2511Z" fill="#ffffff"/>
<path d="M6.84439 30.236L0 23.3188L0.674289 22.6373C2.23313 21.0619 4.314 20.1899 6.51813 20.1899C8.72225 20.1899 10.8031 21.0619 12.362 22.6373L13.3625 23.6485L6.84439 30.236ZM2.74791 23.3701L6.84439 27.5101L10.6509 23.6632C9.49805 22.6666 8.04796 22.1171 6.51813 22.1171C5.14055 22.1171 3.83547 22.5567 2.74791 23.3701Z" fill="#ffffff"/>
<path d="M29.0741 52.7021L22.2297 45.7849L28.7479 39.1975L29.7484 40.2087C32.9676 43.4621 32.9676 48.7672 29.7484 52.0207L29.0741 52.7021ZM24.9269 45.7776L29.0234 49.9177C30.7635 47.5362 30.662 44.2095 28.7334 41.9307L24.9269 45.7776Z" fill="#ffffff"/>
<path d="M2.56653 53.2809L1.04395 52.1232C2.51578 49.8737 2.15326 48.2763 1.73999 46.4224C1.50072 45.3599 1.25421 44.2681 1.39197 43.0591C1.81249 39.2341 4.18338 37.2557 7.91734 37.6294L8.92515 37.7027L8.89615 39.5638H7.97534C7.93184 39.5638 7.84484 39.5565 7.72883 39.5492C5.04618 39.2781 3.58884 40.4944 3.28432 43.2716C3.19007 44.1582 3.38583 45.0521 3.60334 45.9974C3.88611 47.2431 4.18338 48.5913 3.90786 50.1448C5.32169 49.5732 7.2793 49.2142 9.80245 49.6905C10.8465 49.8883 11.7311 49.6025 12.4344 48.8551C13.3769 47.8439 13.7032 46.2612 13.4712 45.3233L13.2391 44.3853L15.088 43.9164L15.32 44.8543C15.7405 46.5543 15.1098 48.7892 13.8192 50.1741C12.6736 51.3978 11.122 51.896 9.44718 51.5883C4.81416 50.709 2.65354 53.1784 2.56653 53.2809Z" fill="#ffffff"/>
<path d="M5.33622 46.7448L5.28547 45.7849C5.25647 45.2427 5.14046 44.6638 5.14046 44.6565L5.11871 44.5026C5.0172 42.4216 6.43104 41.5642 7.19958 41.403L8.13488 41.2052L8.52641 43.0957L7.61285 43.2935C7.42434 43.3448 7.01107 43.5573 7.03282 44.3487C7.06907 44.5612 7.17058 45.1181 7.19958 45.6823L7.25033 46.6422L5.33622 46.7448Z" fill="#ffffff"/>
</g>
<defs>
<clipPath id="clip0">
<rect width="52" height="53.1318" fill="white" transform="translate(0 0.14917)"/>
</clipPath>
</defs>
</svg>
